PathFileType	4	(X/Y/Z)	C:\Users\Basilio\Documents\Thesis Gigler\squatting_fais\c3dfiles\073\SJ_pre3\markers_experimental.trc
DataRate	CameraRate	NumFrames	NumMarkers	Units	OrigDataRate	OrigDataStartFrame	OrigNumFrames
200.000000	200.000000	4	61	mm	200.000000	495	1320
Frame#	Time	FHD			LBHD			RBHD			C7			T10			CLAV			LSHO			LUUPA			LMUPA			LDUPA			LLEP			LMEP			LRAD			LUL			LRFIN			RSHO			RUPA1			RMUPA			RDUPA			RLEP			RMEP			RRAD			RUL			RUFIN			LASI			RASI			USACR			LSACR			RSACR			LTHI1			LTHI2			LTHI3			LTHI4			LLFC			LMFC			LTIB1			LTIB2			LTIB3			LTIB4			LLMAL			LMMAL			LHEE			LMT1			LMT2			LMT5			RTHI			RTHI2			RTHI3			RTHI4			RLFC			RMFC			RTIB1			RTIB2			RTIB3			RTIB4			RLMAL			RMMAL			RHEE			RMT1			RMT2			RMT5			
		X1	Y1	Z1	X2	Y2	Z2	X3	Y3	Z3	X4	Y4	Z4	X5	Y5	Z5	X6	Y6	Z6	X7	Y7	Z7	X8	Y8	Z8	X9	Y9	Z9	X10	Y10	Z10	X11	Y11	Z11	X12	Y12	Z12	X13	Y13	Z13	X14	Y14	Z14	X15	Y15	Z15	X16	Y16	Z16	X17	Y17	Z17	X18	Y18	Z18	X19	Y19	Z19	X20	Y20	Z20	X21	Y21	Z21	X22	Y22	Z22	X23	Y23	Z23	X24	Y24	Z24	X25	Y25	Z25	X26	Y26	Z26	X27	Y27	Z27	X28	Y28	Z28	X29	Y29	Z29	X30	Y30	Z30	X31	Y31	Z31	X32	Y32	Z32	X33	Y33	Z33	X34	Y34	Z34	X35	Y35	Z35	X36	Y36	Z36	X37	Y37	Z37	X38	Y38	Z38	X39	Y39	Z39	X40	Y40	Z40	X41	Y41	Z41	X42	Y42	Z42	X43	Y43	Z43	X44	Y44	Z44	X45	Y45	Z45	X46	Y46	Z46	X47	Y47	Z47	X48	Y48	Z48	X49	Y49	Z49	X50	Y50	Z50	X51	Y51	Z51	X52	Y52	Z52	X53	Y53	Z53	X54	Y54	Z54	X55	Y55	Z55	X56	Y56	Z56	X57	Y57	Z57	X58	Y58	Z58	X59	Y59	Z59	X60	Y60	Z60	X61	Y61	Z61	

496	2.475	78.43914031982423	991.1740722656252	-975.778015136719	-59.64558410644533	990.1639404296877	-997.8880615234377	-84.72850036621095	982.0043945312502	-864.9146118164065	-119.8099441528321	940.159362792969	-930.8604736328127	-422.1958923339845	808.8052368164065	-927.9145507812502	-96.14460754394534	784.4865722656252	-927.917907714844	-86.18971252441408	812.8020629882815	-1093.798217773438	-166.9013214111328	817.486267089844	-1222.71337890625	-196.7527008056641	777.776794433594	-1230.725708007813	-208.7651519775391	813.761901855469	-1278.47314453125	-295.9199523925782	794.1055908203127	-1343.37548828125	-343.3251037597657	864.147155761719	-1329.797119140625	-475.8330688476564	695.3470458984376	-1166.901977539063	-451.7498474121095	634.8375854492189	-1203.675170898438	-461.4730224609376	679.2544555664064	-1105.1845703125	-90.28261566162111	809.3956298828127	-763.8952636718751	-181.1231536865235	840.1207275390627	-622.3575439453126	-211.4208374023438	803.109313964844	-609.2723999023439	-228.9783935546876	847.2027587890627	-571.8311767578126	-307.2155761718751	827.5386962890627	-517.4295043945314	-361.8596191406251	891.1587524414065	-562.7929077148439	-495.1297607421876	708.6697387695314	-675.3291015625001	-464.8145446777345	649.5715942382814	-638.1122436523439	-459.3677978515626	684.5955810546876	-735.8398437500001	-448.6034545898439	605.6771850585939	-1048.259643554688	-441.3381958007814	593.0782470703126	-808.1763305664065	-540.4891967773439	754.3940429687501	-916.3025512695315	-570.2764282226564	742.7149047851564	-943.506286621094	-571.6495361328126	741.0659790039064	-887.573181152344	-361.5212097167969	524.7738647460939	-1171.68212890625	-275.6078796386719	526.7329711914064	-1180.407592773438	-254.7790679931641	560.4397583007814	-1150.3115234375	-240.6555633544922	475.8886718750001	-1182.9111328125	-202.6746368408204	440.9323120117189	-1189.682250976563	-180.7863159179688	423.2283630371095	-1065.533203125	-220.0237884521485	253.0301208496094	-1153.731689453125	-296.4170227050782	253.3833007812501	-1201.210693359375	-265.6705017089844	227.1343688964844	-1182.400146484375	-303.8356323242188	159.3391571044922	-1149.447631835938	-418.734832763672	87.48378753662111	-1175.464965820313	-394.9951171875001	103.0095977783203	-1088.66796875	-481.1400451660157	53.61878585815431	-1130.245239257813	-251.2001647949219	54.27799224853517	-1127.057983398438	-255.3611297607422	54.97571563720705	-1165.38623046875	-297.6862182617188	37.05941772460938	-1216.351684570313	-440.3890380859376	532.9520263671876	-682.2073364257814	-375.1278991699219	535.7581787109376	-672.7948608398439	-357.5757141113282	563.3190917968751	-681.6500244140626	-321.5165710449219	473.3674926757814	-662.1032104492189	-201.3324737548829	409.3023681640626	-653.4901123046876	-177.5539703369141	388.2426757812501	-772.2252197265627	-227.5613861083985	253.3932189941407	-731.0966186523439	-300.5869140625001	207.4668884277344	-664.2666625976564	-280.5605773925782	191.2730407714844	-704.2053222656251	-319.4328918457032	162.4936981201172	-736.4688720703126	-436.267303466797	85.56360626220705	-680.9227905273439	-414.1824035644532	95.28553009033205	-769.2486572265627	-507.988250732422	48.56838226318361	-739.4350585937501	-280.5059814453126	53.92750167846681	-702.0570068359376	-289.2861633300782	55.79897689819337	-661.9669799804689	-338.9670410156251	36.63057327270509	-621.0111694335939	
497	2.48	78.46133422851564	991.0725708007815	-975.500915527344	-59.57987594604494	990.0335693359377	-997.7248535156252	-84.76490783691408	981.8057861328127	-864.5877075195315	-119.8463211059571	939.995056152344	-930.6544189453127	-422.2592773437501	808.7710571289065	-927.7779541015627	-96.18336486816409	784.345397949219	-927.7725219726565	-86.23333740234376	812.6255493164065	-1093.62255859375	-166.9366149902344	817.3642578125002	-1222.624389648438	-196.7892608642579	777.706237792969	-1230.55712890625	-208.7569580078126	813.3488769531252	-1278.21923828125	-296.1030273437501	794.2189941406252	-1343.191040039063	-343.2927246093751	864.117370605469	-1329.646728515625	-475.8891601562501	695.3489990234376	-1166.836669921875	-451.8851623535157	634.8203735351564	-1203.5810546875	-461.6025390625001	679.3106689453126	-1105.142700195313	-90.35858154296876	809.1660156250002	-763.7555541992189	-181.1712036132813	839.8859863281252	-622.1483154296876	-211.5182189941407	802.8885498046877	-609.1650390625001	-229.0496063232422	847.036071777344	-571.7203979492189	-307.2546691894532	827.316833496094	-517.2633056640626	-361.8925476074219	890.9133300781252	-562.6660766601564	-495.2300109863282	708.5409545898439	-675.2138671875001	-464.8818664550782	649.4826049804689	-638.0739135742189	-459.4637756347657	684.5325317382814	-735.7607421875001	-448.5756835937501	605.7315063476564	-1048.133056640625	-441.2801513671876	593.1622314453126	-808.069519042969	-540.6156616210939	754.3763427734376	-916.1922607421877	-570.3516235351564	742.6809082031251	-943.4005126953127	-571.7044067382814	741.0469360351564	-887.4645996093752	-361.6960144042969	524.7952270507814	-1171.565063476563	-275.7493286132813	526.7860717773439	-1180.302978515625	-254.866928100586	560.4885253906251	-1150.284912109375	-240.7030181884766	475.9266662597657	-1182.79736328125	-202.7755889892579	441.0247497558595	-1189.5595703125	-180.86279296875	423.2749328613282	-1065.45654296875	-220.0500183105469	253.0537567138672	-1153.687866210938	-296.4012145996094	253.4056701660157	-1201.164672851563	-265.4315490722657	227.3053131103516	-1182.2490234375	-303.8506164550782	159.3908386230469	-1149.426147460938	-418.7723388671876	87.49374389648439	-1175.42431640625	-395.024871826172	102.9839935302735	-1088.649169921875	-481.1971435546876	53.61024093627931	-1130.214599609375	-251.5403137207032	54.05099105834962	-1127.098999023438	-255.2130279541016	55.01876449584962	-1165.249633789063	-297.6908874511719	37.07050323486329	-1216.386840820313	-440.4236145019532	532.8801879882814	-682.1638793945314	-375.2066650390626	535.6983032226564	-672.7631835937501	-357.6845703125001	563.2896118164064	-681.5640869140626	-321.5792236328126	473.3367309570314	-662.0447998046876	-201.3349914550782	409.2862243652345	-653.4793090820314	-177.7550811767578	388.1602783203126	-772.1204833984377	-227.5340423583985	253.434066772461	-731.0773925781251	-300.5402526855469	207.4629516601563	-664.2098999023439	-280.5955810546876	191.2454528808594	-704.1605224609376	-319.4744262695313	162.4603576660157	-736.4838867187501	-436.2453918457032	85.56822204589845	-680.9049072265626	-414.1929321289064	95.28903198242189	-769.2315673828127	-507.9878845214845	48.52695846557619	-739.4135742187501	-280.9788513183594	53.69804763793947	-702.6141357421876	-289.2962341308594	55.82313156127931	-661.9740600585939	-338.9280700683594	36.61007308959962	-620.9828491210939	
498	2.485	78.3799514770508	990.982849121094	-975.300964355469	-59.64816665649415	989.8364257812502	-997.5947875976565	-84.84755706787111	981.6391601562502	-864.4851074218752	-119.9094696044922	939.8501586914065	-930.5078125000002	-422.2595214843751	808.7056884765627	-927.6795654296877	-96.24017333984378	784.2020263671877	-927.6201171875002	-86.23867034912111	812.4910278320315	-1093.468017578125	-166.9750366210938	817.2878417968752	-1222.514282226563	-196.8132934570313	777.5825195312502	-1230.484985351563	-208.774887084961	813.2368164062502	-1278.114990234375	-296.0884704589844	794.0999145507815	-1343.07177734375	-343.2973937988282	864.049011230469	-1329.517456054688	-476.0977783203126	695.3629760742189	-1166.718872070313	-452.0080566406251	634.7929687500001	-1203.468139648438	-461.7693176269532	679.2721557617189	-1105.086547851563	-90.42230224609376	808.9597778320315	-763.5654296875001	-181.3567657470703	839.653503417969	-622.2744140625001	-211.5879058837891	802.6436157226565	-608.9953613281251	-229.1407165527344	846.8579101562502	-571.5875244140626	-307.3231811523438	827.0794067382815	-517.1412963867189	-361.9169311523438	890.7358398437502	-562.4481201171876	-495.3553466796876	708.4149780273439	-675.0431518554689	-465.0436096191407	649.3512573242189	-637.9608154296876	-459.5541076660157	684.4137573242189	-735.6201782226564	-449.8062438964845	605.6314697265626	-1048.707153320313	-441.2299804687501	592.7539062500001	-808.7231445312502	-540.7796020507814	754.3237304687501	-916.0098266601565	-570.8424682617189	742.6478271484376	-943.0772705078127	-571.7815551757814	741.0037231445314	-887.3953857421877	-361.8327941894532	524.7794799804689	-1171.458618164063	-275.8486022949219	526.7757568359376	-1180.2275390625	-254.9897155761719	560.5286865234376	-1150.168090820313	-240.7756500244141	475.9351501464845	-1182.666015625	-202.8514251708985	441.0505981445314	-1189.407958984375	-180.9222564697266	423.2775268554689	-1065.37109375	-220.0928039550782	253.0756988525391	-1153.568969726563	-296.4821777343751	253.4614715576172	-1201.090209960938	-265.7813720703126	227.1243896484376	-1182.32177734375	-303.8836364746094	159.4028930664063	-1149.3935546875	-418.7539672851564	87.48854827880861	-1175.403686523438	-395.0035095214845	102.9840927124024	-1088.642700195313	-481.1520996093751	53.57255172729494	-1130.223754882813	-251.2278137207032	54.25890350341798	-1127.04296875	-255.3652648925782	54.92333602905275	-1165.409545898438	-297.6764831542969	37.05908584594727	-1216.334228515625	-440.5272521972657	532.8208618164064	-682.0581665039064	-375.2800598144532	535.6583862304689	-672.7053833007814	-357.7718811035157	563.2620239257814	-681.5487670898439	-321.6737365722657	473.2817382812501	-662.0454101562501	-201.4035034179688	409.3170776367189	-653.4309692382814	-177.7693176269532	388.1895446777345	-772.1284179687502	-227.5851135253907	253.4482879638672	-730.9805908203126	-300.5381164550782	207.4857635498047	-664.2093505859376	-280.5984802246094	190.903076171875	-704.3656005859376	-319.5075073242188	162.52001953125	-736.4443359375001	-436.2511596679689	85.55565643310548	-680.8836669921876	-414.2037048339845	95.28826141357423	-769.2125244140627	-507.9869689941407	48.52492141723634	-739.4086914062501	-280.5132751464844	53.95101165771486	-701.9931030273439	-289.2769470214844	55.80286788940431	-661.9610595703126	-338.9276123046876	36.61128997802735	-620.9869384765626	
499	2.49	78.49550628662111	990.8748168945315	-975.1028442382815	-59.71297454833986	989.6910400390627	-997.4793090820315	-84.90017700195314	981.4658813476565	-864.1545410156252	-119.9362182617188	939.683776855469	-930.3074340820315	-422.3350524902345	808.6339111328127	-927.5020751953127	-96.33447265625003	784.058532714844	-927.4418945312502	-86.2327117919922	812.3452758789065	-1093.30908203125	-167.0490264892578	817.122009277344	-1222.438354492188	-196.8403778076172	777.4877929687502	-1230.401000976563	-208.7835388183594	813.1480102539065	-1277.880615234375	-296.1299438476563	794.0154418945315	-1342.937622070313	-343.2868347167969	864.0139160156252	-1329.37158203125	-476.1941528320314	695.3394165039064	-1166.63916015625	-452.2156372070314	634.7691650390626	-1203.384155273438	-461.8865051269532	679.2670288085939	-1105.016235351563	-90.44869232177736	808.7368164062502	-763.4550170898439	-181.4239654541016	839.4123535156252	-622.1361083984376	-211.6535339355469	802.4544067382815	-608.8265380859376	-229.1732177734376	846.625427246094	-571.4625854492189	-307.3679504394532	826.8261718750002	-516.9619750976564	-361.9613952636719	890.5689086914065	-562.3268432617189	-495.4038391113282	708.2860717773439	-674.9390258789064	-465.156707763672	649.2183227539064	-637.9218139648439	-459.6472473144532	684.3199462890626	-735.5039672851564	-449.9298400878907	605.6581420898439	-1048.757934570313	-441.3157348632814	592.5485839843751	-808.808288574219	-540.8635253906251	754.2477416992189	-915.9370117187502	-570.9012451171876	742.6126098632814	-942.9993896484377	-571.8438720703126	740.9141845703126	-887.2788696289065	-361.9092712402344	524.7738037109376	-1171.399047851563	-275.9288635253907	526.7739868164064	-1180.0986328125	-255.1202545166016	560.5572509765626	-1150.054321289063	-240.8959197998047	476.0019836425782	-1182.539184570313	-202.9534454345704	441.110076904297	-1189.302978515625	-180.9644622802735	423.3105773925782	-1065.235229492188	-220.1296539306641	253.1502227783204	-1153.526611328125	-296.4705200195313	253.4835052490235	-1201.031982421875	-265.5476684570313	227.3062896728516	-1182.103271484375	-303.9299621582032	159.4016265869141	-1149.388427734375	-418.7705078125001	87.47567749023439	-1175.4111328125	-394.9992065429689	102.9581451416016	-1088.632446289063	-481.1743469238282	53.59170532226564	-1130.242431640625	-251.2659301757813	54.25071334838869	-1127.002075195313	-255.3708190917969	54.916072845459	-1165.345703125	-297.7011413574219	37.06362915039063	-1216.399291992188	-440.5846557617189	532.7828979492189	-682.0548706054689	-375.3897094726563	535.6116943359376	-672.6276245117189	-357.8580627441407	563.2327270507814	-681.4780883789064	-321.6986694335938	473.2703247070314	-662.0358276367189	-201.4523468017579	409.3216247558595	-653.4046020507814	-177.8931121826172	388.1838684082032	-772.1077880859377	-227.6456298828126	253.4617614746094	-731.0566406250001	-300.6336364746094	207.464340209961	-664.2326049804689	-280.6549682617188	190.9526824951172	-704.3656005859376	-319.5239868164063	162.4732971191407	-736.4490356445314	-436.2530517578126	85.54276275634767	-680.8834838867189	-414.2019348144532	95.28596496582033	-769.2250976562502	-508.0081481933595	48.5170249938965	-739.4083862304689	-280.5889892578126	53.90511703491212	-702.1196899414064	-289.2976989746094	55.77368927001955	-661.9601440429689	-339.0007629394532	36.63197708129884	-621.0075073242189	
